<svg width="16" height="16" viewBox="0 0 16 16" fill="none" xmlns="http://www.w3.org/2000/svg">
<g clip-path="url(#clip0_1_2)">
<path fill-rule="evenodd" clip-rule="evenodd" d="M7.97616 0C3.56555 0 0 3.59184 0 8.03543C0 11.5874 2.28457 14.5941 5.45388 15.6583C5.85012 15.7383 5.99527 15.4854 5.99527 15.2727C5.99527 15.0864 5.9822 14.4478 5.9822 13.7825C3.76343 14.2616 3.30139 12.8247 3.30139 12.8247C2.94482 11.8934 2.41649 11.654 2.41649 11.654C1.69029 11.1618 2.46939 11.1618 2.46939 11.1618C3.27494 11.215 3.69763 11.9866 3.69763 11.9866C4.41061 13.2104 5.55951 12.8647 6.02171 12.6518C6.08767 12.1329 6.2991 11.7737 6.52359 11.5742C4.75396 11.3879 2.89208 10.6962 2.89208 7.60963C2.89208 6.73159 3.20882 6.01322 3.71069 5.45453C3.63151 5.25502 3.35412 4.43004 3.79004 3.32588C3.79004 3.32588 4.46351 3.11298 5.98204 4.15069C6.63218 3.9748 7.30265 3.88532 7.97616 3.88457C8.64963 3.88457 9.33616 3.9778 9.97012 4.15069C11.4888 3.11298 12.1623 3.32588 12.1623 3.32588C12.5982 4.43004 12.3207 5.25502 12.2415 5.45453C12.7566 6.01322 13.0602 6.73159 13.0602 7.60963C13.0602 10.6962 11.1984 11.3745 9.41551 11.5742C9.70612 11.8269 9.9569 12.3058 9.9569 13.0642C9.9569 14.1417 9.94384 15.0065 9.94384 15.2725C9.94384 15.4854 10.0891 15.7383 10.4852 15.6584C13.6545 14.594 15.9391 11.5874 15.9391 8.03543C15.9522 3.59184 12.3736 0 7.97616 0Z" fill="#24292F"/>
</g>
<defs>
<clipPath id="clip0_1_2">
<rect width="16" height="15.6735" fill="white"/>
</clipPath>
</defs>
</svg>
